<svg width="44" height="44" viewBox="0 0 44 44" fill="none" xmlns="http://www.w3.org/2000/svg">
<path d="M21.9993 34.8333C26.0494 34.8333 29.3327 31.5501 29.3327 27.5C29.3327 23.4499 26.0494 20.1667 21.9993 20.1667C17.9493 20.1667 14.666 23.4499 14.666 27.5C14.666 31.5501 17.9493 34.8333 21.9993 34.8333Z" stroke="#8E702B" stroke-width="1.5" stroke-miterlimit="10" stroke-linecap="round" stroke-linejoin="round"/>
<path d="M19.1406 27.5L20.3323 28.6917C20.6806 29.04 21.249 29.0583 21.5973 28.71L24.8606 25.7033" stroke="#8E702B" stroke-width="1.5" stroke-linecap="round" stroke-linejoin="round"/>
<path d="M16.5002 40.3333H27.5002C34.8702 40.3333 36.1902 37.3817 36.5752 33.7883L37.9502 22.7883C38.4452 18.315 37.1618 14.6667 29.3335 14.6667H14.6668C6.8385 14.6667 5.55517 18.315 6.05017 22.7883L7.42517 33.7883C7.81017 37.3817 9.13017 40.3333 16.5002 40.3333Z" stroke="#8E702B" stroke-width="1.5" stroke-miterlimit="10" stroke-linecap="round" stroke-linejoin="round"/>
<path d="M13.75 14.0617V12.2833C13.75 8.15833 17.0683 4.10667 21.1933 3.72167C26.1067 3.245 30.25 7.11333 30.25 11.935V14.465" stroke="#8E702B" stroke-width="1.5" stroke-miterlimit="10" stroke-linecap="round" stroke-linejoin="round"/>
</svg>
