<svg width="44" height="44" viewBox="0 0 44 44" fill="none" xmlns="http://www.w3.org/2000/svg">
<path d="M15.8984 26.2714C15.8984 28.6364 17.7134 30.543 19.9684 30.543H24.5701C26.5318 30.543 28.1268 28.8747 28.1268 26.8214C28.1268 24.5847 27.1551 23.7964 25.7068 23.283L18.3184 20.7164C16.8701 20.203 15.8984 19.4147 15.8984 17.178C15.8984 15.1247 17.4934 13.4564 19.4551 13.4564H24.0568C26.3118 13.4564 28.1268 15.363 28.1268 17.728" stroke="#8E702B" stroke-width="1.5" stroke-linecap="round" stroke-linejoin="round"/>
<path d="M22 11V33" stroke="#8E702B" stroke-width="1.5" stroke-linecap="round" stroke-linejoin="round"/>
<path d="M21.9993 40.3333C32.1246 40.3333 40.3327 32.1252 40.3327 22C40.3327 11.8748 32.1246 3.66667 21.9993 3.66667C11.8741 3.66667 3.66602 11.8748 3.66602 22C3.66602 32.1252 11.8741 40.3333 21.9993 40.3333Z" stroke="#8E702B" stroke-width="1.5" stroke-linecap="round" stroke-linejoin="round"/>
</svg>
