<svg width="60" height="60" viewBox="0 0 60 60" fill="none" xmlns="http://www.w3.org/2000/svg">
<g clip-path="url(#clip0_0_4685)">
<g clip-path="url(#clip1_0_4685)">
<mask id="mask0_0_4685" style="mask-type:luminance" maskUnits="userSpaceOnUse" x="-10" y="0" width="80" height="60">
<path d="M70 0H-10V60H70V0Z" fill="white"/>
</mask>
<g mask="url(#mask0_0_4685)">
<mask id="mask1_0_4685" style="mask-type:luminance" maskUnits="userSpaceOnUse" x="-11" y="0" width="82" height="61">
<path d="M-10.0156 0H70.2016V60.16H-10.0156V0Z" fill="white"/>
</mask>
<g mask="url(#mask1_0_4685)">
<path fill-rule="evenodd" clip-rule="evenodd" d="M-30.7773 0.410156H91.188V58.9252H-30.7773V0.410156Z" fill="#FFC621"/>
<path fill-rule="evenodd" clip-rule="evenodd" d="M-31.0117 40.2422H91.106V60.1584H-31.0117V40.2422Z" fill="#EF2118"/>
<path fill-rule="evenodd" clip-rule="evenodd" d="M-30.7773 0H91.188V21.15H-30.7773V0Z" fill="#298C08"/>
<path d="M28.0499 43.7638C35.0479 43.7638 40.7208 38.0908 40.7208 31.0928C40.7208 24.0949 35.0479 18.4219 28.0499 18.4219C21.0519 18.4219 15.3789 24.0949 15.3789 31.0928C15.3789 38.0908 21.0519 43.7638 28.0499 43.7638Z" fill="#006BC6"/>
<path fill-rule="evenodd" clip-rule="evenodd" d="M22.3677 22.114L21.6039 22.6427L24.3652 26.5202L25.1054 26.0502L22.3559 22.114H22.3677ZM25.8222 31.279L24.6824 30.48L25.1524 28.9877L19.5007 29.07L17.8557 27.8127L25.5754 27.7305L27.0089 23.3947L27.7844 25.1572L25.8222 31.2672V31.279ZM34.8109 22.9717L34.0707 22.4077L31.2154 26.2147L31.8734 26.767L34.8109 22.9717ZM27.1264 29.023L27.5377 27.707H29.1004L27.3144 22.3255L28.0194 20.3867L30.4282 27.7187L34.9872 27.7775L33.5537 29.0347L27.1264 29.0112V29.023ZM37.7719 35.039L38.0892 34.1695L33.5889 32.6067L33.2599 33.4292L37.7719 35.039ZM29.6527 29.587L31.0274 29.5752L31.5092 31.0557L36.0682 27.707L38.1362 27.7775L31.8969 32.3247L33.2482 36.6957L31.6032 35.7087L29.6527 29.587ZM27.3262 41.572L28.2544 41.5955L28.2897 36.8367L27.4202 36.778L27.3262 41.5837V41.572ZM29.9112 32.1367L30.3577 33.441L29.1004 34.381L33.7299 37.6357L34.3174 39.6097L28.0194 35.1447L24.3182 37.812L24.7294 35.932L29.8994 32.1367H29.9112ZM17.7734 33.6642L18.0437 34.5455L22.5909 33.112L22.3559 32.266L17.7734 33.6642ZM27.5494 33.1942L26.4449 34.0285L25.1759 33.1237L23.5074 38.5287L21.8154 39.7037L24.1067 32.3365L20.4172 29.634L22.3324 29.446L27.5494 33.1942Z" fill="#FFC621"/>
</g>
</g>
</g>
</g>
<defs>
<clipPath id="clip0_0_4685">
<rect width="60" height="60" rx="30" fill="white"/>
</clipPath>
<clipPath id="clip1_0_4685">
<rect width="80" height="60" fill="white" transform="translate(-10)"/>
</clipPath>
</defs>
</svg>
