<svg width="16" height="17" viewBox="0 0 16 17" fill="none" xmlns="http://www.w3.org/2000/svg">
<path d="M8.00006 6.71334C8.79339 6.71334 9.44006 6.06668 9.44006 5.27334C9.44006 4.48001 8.79339 3.83334 8.00006 3.83334C7.20673 3.83334 6.56006 4.48001 6.56006 5.27334C6.56006 6.06668 7.20673 6.71334 8.00006 6.71334Z" stroke="#8E702B" stroke-width="1.5" stroke-linecap="round" stroke-linejoin="round"/>
<path d="M4.52643 13.1667C5.31976 13.1667 5.96643 12.52 5.96643 11.7267C5.96643 10.9333 5.31976 10.2867 4.52643 10.2867C3.73309 10.2867 3.08643 10.9333 3.08643 11.7267C3.08643 12.52 3.72643 13.1667 4.52643 13.1667Z" stroke="#8E702B" stroke-width="1.5" stroke-linecap="round" stroke-linejoin="round"/>
<path d="M11.4732 13.1667C12.2665 13.1667 12.9132 12.52 12.9132 11.7267C12.9132 10.9333 12.2665 10.2867 11.4732 10.2867C10.6799 10.2867 10.0332 10.9333 10.0332 11.7267C10.0332 12.52 10.6799 13.1667 11.4732 13.1667Z" stroke="#8E702B" stroke-width="1.5" stroke-linecap="round" stroke-linejoin="round"/>
</svg>
