<svg width="44" height="44" viewBox="0 0 44 44" fill="none" xmlns="http://www.w3.org/2000/svg">
<path d="M10.0463 33.8983V28.545C10.0463 26.7667 11.4396 25.1716 13.4196 25.1716C15.1979 25.1716 16.7929 26.565 16.7929 28.545V33.6967C16.7929 37.2717 13.8229 40.2417 10.2479 40.2417C6.6729 40.2417 3.70289 37.2533 3.70289 33.6967V22.4033C3.50122 12.0999 11.6412 3.75831 21.9446 3.75831C32.2479 3.75831 40.3696 12.1 40.3696 22.2016V33.495C40.3696 37.07 37.3996 40.04 33.8246 40.04C30.2496 40.04 27.2796 37.07 27.2796 33.495V28.3434C27.2796 26.565 28.6729 24.97 30.6529 24.97C32.4312 24.97 34.0262 26.3634 34.0262 28.3434V33.8983" stroke="#8E702B" stroke-width="1.5" stroke-linecap="round" stroke-linejoin="round"/>
<path d="M28.4714 16.72H26.9865C26.5831 16.72 26.1981 16.9583 26.0148 17.3067L24.6398 20.0567C24.4381 20.46 23.8698 20.46 23.6681 20.0567L20.2948 13.3284C20.0931 12.9434 19.5431 12.925 19.3414 13.31L17.8014 16.1517C17.6181 16.5 17.2515 16.72 16.8481 16.72H15.5098" stroke="#8E702B" stroke-width="1.5" stroke-linecap="round" stroke-linejoin="round"/>
</svg>
